<svg width="500" height="500" viewBox="0 0 500 500" fill="none" xmlns="http://www.w3.org/2000/svg">
<path d="M0 30C0 13.4315 13.4315 0 30 0H250V250H0V30Z" fill="#F44336"/>
<path d="M250 250H500V470C500 486.569 486.569 500 470 500H250V250Z" fill="#FFC107"/>
<path d="M0 250H250V500H30C13.4315 500 0 486.569 0 470V250Z" fill="#2196F3"/>
<path d="M250 0H470C486.569 0 500 13.4315 500 30V250H250V0Z" fill="#4CAF50"/>
<path d="M401.099 319.5L288.516 124.5C271.195 94.5 227.894 94.4999 210.574 124.5L97.9904 319.5C80.6699 349.5 102.32 387 136.961 387H362.128C396.769 387 418.42 349.5 401.099 319.5Z" fill="#1565C0" stroke="white" stroke-width="30"/>
</svg>
